<svg xmlns="http://www.w3.org/2000/svg" xmlns:xlink="http://www.w3.org/1999/xlink" version="1.1" id="Your_Icon" x="0px" y="0px" width="100px" height="100px" viewBox="5.0 -10.0 100.0 135.0" enable-background="new 0 0 100 100" xml:space="preserve">
<path d="M46.477,33.225c-4.266-1.994-9.502-1.229-13.025,2.293c-4.499,4.499-4.499,11.794,0,16.294  c2.984,2.984,7.196,3.989,11.007,3.014l0.046,0.045l0.132-0.131l2.904,2.885l4.64-0.001v4.217h4.364l0,4.362l4.447,0.001v4.446  l5.618-0.001l1.86,1.86l1.357-1.356l-0.068,0v-3.629L51.567,49.331c0.209-0.332,0.4-0.674,0.57-1.021l17.622,17.622l0-2.278h0.129  L52.76,46.526c0.975-3.811-0.031-8.024-3.014-11.008C48.769,34.541,47.661,33.777,46.477,33.225z M41.441,43.507  c-1.465,1.465-3.839,1.465-5.303,0c-1.464-1.464-1.465-3.838,0-5.303c1.465-1.465,3.839-1.464,5.303,0  C42.906,39.669,42.906,42.042,41.441,43.507z"/>
<text x="0.0" y="117.5" font-size="5.0" font-weight="bold" font-family="Helvetica Neue, Helvetica, Arial-Unicode, Arial, Sans-serif" fill="#000000">Created by TNS</text><text x="0.0" y="122.5" font-size="5.0" font-weight="bold" font-family="Helvetica Neue, Helvetica, Arial-Unicode, Arial, Sans-serif" fill="#000000">from the Noun Project</text></svg>